<?xml version="1.0" standalone="no"?>
<!DOCTYPE svg PUBLIC "-//W3C//DTD SVG 20010904//EN"
 "http://www.w3.org/TR/2001/REC-SVG-20010904/DTD/svg10.dtd">
<svg version="1.0" xmlns="http://www.w3.org/2000/svg"
 width="700.000000pt" height="700.000000pt" viewBox="0 0 700.000000 700.000000"
 preserveAspectRatio="xMidYMid meet">
<metadata>
Created by potrace 1.14, written by Peter Selinger 2001-2017
</metadata>
<g transform="translate(0.000000,700.000000) scale(0.100000,-0.100000)"
fill="#000000" stroke="none">
<path d="M3369 6646 c-2 -2 -24 -6 -49 -9 -53 -7 -64 -10 -149 -32 -76 -19
-161 -57 -257 -112 -38 -22 -96 -55 -129 -73 -33 -18 -114 -63 -180 -100 -66
-37 -142 -79 -170 -95 -60 -33 -582 -324 -820 -457 -93 -52 -199 -111 -235
-131 -419 -229 -499 -287 -624 -447 -97 -126 -171 -276 -208 -426 -21 -89 -21
-91 -22 -1239 0 -632 3 -1175 7 -1205 21 -181 135 -422 267 -564 130 -142 138
-147 510 -354 25 -14 218 -122 430 -240 333 -185 439 -245 595 -332 17 -9 91
-51 165 -92 74 -41 158 -88 185 -103 385 -215 422 -231 592 -264 99 -19 302
-25 388 -11 28 5 68 12 89 15 78 13 211 65 320 126 61 34 136 75 166 92 30 17
188 104 350 195 162 90 430 240 595 332 912 508 868 482 974 593 147 154 245
329 293 527 21 84 21 102 22 1230 0 630 -3 1172 -7 1205 -14 130 -96 341 -179
459 -63 90 -165 197 -243 256 -40 31 -433 256 -671 385 -27 14 -67 37 -89 49
-22 12 -69 38 -105 58 -36 20 -209 116 -385 215 -914 511 -889 499 -1080 533
-85 16 -334 27 -346 16z m391 -239 c96 -27 110 -34 334 -159 88 -50 181 -102
206 -116 25 -14 79 -44 120 -67 41 -24 100 -56 130 -73 61 -33 534 -297 592
-330 21 -12 68 -38 105 -58 37 -21 155 -86 260 -146 106 -59 194 -108 197
-108 11 0 186 -107 221 -135 154 -124 275 -316 321 -511 4 -16 9 -122 11 -236
l5 -206 -24 -4 c-12 -2 -48 -2 -79 0 -65 4 -28 -27 -445 377 -125 121 -257
249 -293 284 -36 35 -122 118 -191 185 -162 157 -174 166 -221 166 -49 0 -28
18 -422 -364 -126 -121 -254 -245 -285 -275 -32 -30 -120 -115 -197 -190 -319
-309 -303 -295 -318 -280 -15 15 -452 437 -526 509 -26 25 -159 153 -295 285
-136 132 -263 248 -282 259 -58 31 -91 14 -234 -126 -154 -149 -618 -598 -675
-653 -23 -22 -150 -144 -281 -271 -131 -128 -261 -253 -289 -279 -27 -26 -114
-110 -192 -186 l-141 -139 -64 -2 -63 -3 0 540 c0 297 3 560 7 585 22 149 127
341 257 470 82 81 101 94 371 245 157 87 301 167 320 178 19 11 172 96 340
190 168 93 375 209 460 257 85 48 180 100 210 117 30 16 73 40 95 53 372 209
359 203 520 235 107 22 326 13 435 -18z m1345 -1478 c90 -88 200 -194 494
-478 l203 -196 -48 -6 c-27 -4 -71 -10 -99 -14 -27 -3 -78 -13 -113 -21 -34
-7 -76 -16 -93 -19 -17 -3 -97 -27 -178 -54 -153 -51 -329 -127 -646 -281
-239 -117 -334 -160 -350 -160 -6 0 -81 68 -166 150 l-154 150 120 116 c111
107 361 349 723 699 80 77 159 154 176 172 17 17 35 29 41 25 5 -3 46 -41 90
-83z m-2345 -71 c63 -61 225 -217 359 -347 134 -130 273 -265 310 -300 55 -53
395 -381 574 -554 27 -26 47 -50 44 -53 -7 -7 -247 -90 -332 -115 -110 -32
-323 -87 -405 -104 -122 -25 -261 -51 -315 -59 -16 -2 -50 -8 -75 -12 -57 -9
-59 -9 -215 -28 -180 -21 -217 -25 -316 -32 l-87 -6 -163 65 c-250 100 -499
177 -649 202 -19 3 -60 10 -90 15 -86 14 -132 20 -177 22 -24 1 -43 4 -43 8 0
3 46 51 103 105 56 54 207 200 336 324 128 124 261 253 295 286 35 33 168 162
297 286 379 367 423 409 429 409 3 0 57 -50 120 -112z m3428 -809 l72 -2 0
-290 0 -289 -35 -67 c-168 -317 -529 -573 -1050 -744 -188 -61 -269 -84 -295
-81 -14 1 -65 5 -115 8 -84 6 -110 9 -217 21 -140 16 -204 24 -238 30 -14 3
-43 7 -65 10 -76 8 -234 35 -352 60 -386 79 -679 166 -1053 314 -130 51 -146
60 -105 62 31 0 56 3 135 15 25 3 56 7 70 9 186 21 570 105 820 179 200 59
472 159 628 232 41 19 75 34 77 34 2 0 97 45 212 101 289 140 439 210 508 236
22 8 54 21 70 28 74 31 235 77 350 99 123 23 142 26 265 32 63 4 116 7 117 8
2 1 38 1 201 -5z m-4913 -711 c11 -3 43 -9 70 -12 102 -15 119 -18 233 -46
155 -38 384 -115 517 -175 274 -123 729 -309 920 -376 280 -97 671 -202 910
-244 17 -3 71 -12 120 -21 107 -19 132 -22 165 -24 53 -2 -4 -19 -115 -35 -22
-4 -47 -8 -55 -10 -8 -2 -28 -7 -45 -9 -52 -9 -384 -66 -535 -92 -169 -30
-413 -76 -520 -99 -41 -9 -86 -19 -100 -21 -30 -6 -225 -56 -325 -83 -120 -32
-315 -101 -425 -148 -229 -99 -373 -187 -524 -318 l-86 -76 -183 102 c-199
111 -208 117 -286 192 -101 98 -180 226 -233 378 l-33 94 -3 517 -3 517 258
-3 c142 -2 267 -5 278 -8z m4983 -645 l-3 -378 -36 -103 c-53 -149 -116 -249
-229 -362 -53 -53 -117 -107 -145 -121 -28 -14 -72 -39 -100 -54 -27 -15 -140
-78 -250 -140 -162 -91 -565 -316 -860 -480 -27 -15 -207 -115 -398 -222 -192
-107 -368 -203 -392 -213 -94 -40 -220 -59 -369 -55 -78 2 -154 6 -171 10 -60
13 -181 57 -230 84 -27 15 -93 52 -145 81 -52 30 -113 63 -135 75 -34 19 -255
143 -957 534 -82 46 -150 86 -153 90 -6 10 111 104 200 162 173 112 520 254
745 304 8 2 60 16 115 30 117 30 260 63 313 71 20 3 64 12 97 19 33 8 101 21
150 29 50 9 101 18 115 21 14 3 41 8 60 11 19 3 46 7 60 10 14 2 66 11 115 19
50 9 101 18 115 20 14 3 45 8 70 11 25 3 48 8 51 10 3 1 28 6 55 9 27 4 67 10
89 15 22 5 60 12 85 15 125 18 551 106 770 159 186 46 484 141 605 195 319
141 579 313 718 472 23 27 43 49 45 49 1 0 1 -170 0 -377z"/>
</g>
</svg>
